<?xml version="1.0" encoding="utf-8"?>
<!-- Generator: Adobe Illustrator 22.1.0, SVG Export Plug-In . SVG Version: 6.00 Build 0)  -->
<svg version="1.1" id="Camada_1" xmlns="http://www.w3.org/2000/svg" xmlns:xlink="http://www.w3.org/1999/xlink" x="0px" y="0px"
	 viewBox="0 0 283.5 92.4" style="enable-background:new 0 0 283.5 92.4;" xml:space="preserve">
<style type="text/css">
	.st0{fill:#7915e4ad;}
	.st1{font-family:'Avenir-Roman';}
	.st2{font-size:12px;}
</style>
<path class="st0" d="M45.1,61.9c-1.9,0-3.6,0-5.4,0c-0.1,0-0.2,0-0.3,0c-1.7,0.6-2.5-0.4-3.4-1.7c-3.3-4.6-6.7-9.1-10.1-13.7
	c-2.7-3.6-5.5-7.2-8.3-10.7c-0.3-0.4-0.8-0.7-1.2-1c-0.1,0.1-0.2,0.1-0.3,0.2c0,9,0,18,0,27c-2.1,0-4.1,0-6.1,0
	c0-17.6,0-35.2,0-52.8c2,0,4,0,6.1,0c0,0.3,0,0.6,0,1c0,7.3,0,14.6,0,22c0,0.3,0.1,0.7,0.2,1c0.4-0.1,0.9-0.1,1.2-0.4
	c1.4-1.4,2.9-2.7,4.2-4.2c5.5-6.3,11-12.6,16.5-18.9C38.5,9.1,38.9,9,39.6,9c1.5,0.1,2.9,0,4.6,0c-0.5,0.6-1,1.1-1.5,1.6
	c-6.5,7.1-13,14.1-19.6,21.2c-0.5,0.5-0.5,0.8-0.1,1.4c5.3,6.6,10.5,13.1,15.7,19.7c2.1,2.7,4,5.5,6,8.2
	C44.9,61.4,45,61.6,45.1,61.9z"/>
<path class="st0" d="M81.7,42.7c0,6.4,0,12.8,0,19.2c-1.5,0-3,0-4.5,0c0-13.2,0-26.4,0-39.7c0.3,0,0.6,0,0.8,0c3.7,0,7.4-0.1,11.1,0
	c1.7,0.1,3.4,0.3,5,0.8c4,1.2,5.9,4.2,5.7,8.4c-0.2,4.8-2.8,7.7-7,9.6c-1.2,0.5-2.4,0.8-3.7,1.3c4.7,6.5,9.4,13.1,14.1,19.7
	c-0.3,0-0.5,0-0.7,0c-1.4,0-2.8-0.1-4.2,0c-0.8,0.1-1.2-0.2-1.7-0.9c-4-5.8-8.1-11.5-12.1-17.3C83.9,42.7,83,42.3,81.7,42.7z
	 M81.7,40.3c1.5,0,3,0.1,4.5,0c6.2-0.5,9.4-4.2,8.8-10.1c-0.3-2.9-1.9-4.9-4.8-5.6c-2.8-0.7-5.6-0.4-8.5-0.2
	C81.7,29.7,81.7,34.9,81.7,40.3z"/>
<path class="st0" d="M138.4,61.9c-1.8,0-3.5,0-5.1,0c-0.2,0-0.5-0.4-0.6-0.7c-1.4-4.1-2.8-8.2-4.3-12.3c-0.3-0.9-0.5-2-1.1-2.4
	c-0.6-0.4-1.7-0.2-2.6-0.2c-3.2,0-6.5,0-9.7,0c-0.6,0-0.9,0.2-1.1,0.7c-1.6,4.8-3.1,9.5-4.7,14.2c-0.2,0.5-0.3,0.7-0.9,0.7
	c-1-0.1-1.9,0-3,0c0.1-0.3,0.1-0.5,0.2-0.8c5.2-13,10.4-26,15.7-39c0.2-0.4,0.3-0.9,1-0.9c0.7,0,0.8,0.4,0.9,0.9
	c4.9,12.8,9.9,25.6,14.8,38.4C138,61,138.2,61.4,138.4,61.9z M115.2,43.8c3.9,0,7.6,0,11.4,0c-1.9-4.9-3.8-9.7-5.8-14.8
	C118.9,34,117,38.9,115.2,43.8z"/>
<path class="st0" d="M225.3,61.9c-1.8,0-3.4,0-5,0c-0.2,0-0.6-0.5-0.7-0.8c-1.6-4.5-3.1-9-4.7-13.5c-0.6-1.7-0.2-1.4-2-1.4
	c-3.6,0-7.3,0-10.9,0c-0.6,0-0.9,0.1-1.1,0.7c-1.5,4.7-3.1,9.4-4.7,14.2c-0.2,0.6-0.4,0.8-1.1,0.7c-0.9-0.1-1.9,0-2.9,0
	c0.4-1,0.7-1.9,1.1-2.8c4.9-12.3,9.9-24.6,14.8-36.9c0.2-0.4,0.2-0.9,0.9-0.9c0.7,0,0.8,0.5,1,0.9c5,13,10,25.9,15,38.9
	C225.1,61.3,225.2,61.6,225.3,61.9z M207.8,29c-1.9,5.1-3.8,9.9-5.6,14.7c3.9,0,7.6,0,11.4,0C211.6,38.8,209.8,34,207.8,29z"/>
<path class="st0" d="M275.5,22.2c0,1.1,0,2.2,0,3.1c-4.5-0.2-9.1-0.4-13.8-0.6c0,5,0,9.8,0,14.6c4.2,0,8.4,0,12.6,0
	c0,0.9,0,1.9,0,2.9c-4.2,0-8.3,0-12.6,0c0,5.5,0,11.1,0,16.8c4.7,0,9.4-0.1,14.1-0.7c0,1.1,0,2.2,0,3.4c-6.2,0-12.5,0-18.8,0
	c0-13.1,0-26.3,0-39.5C263.2,22.2,269.3,22.2,275.5,22.2z"/>
<path class="st0" d="M69.4,22.2c0,1.1,0,2.2,0,3.1c-4.5-0.2-9.1-0.4-13.8-0.6c0,5,0,9.8,0,14.6c4.2,0,8.4,0,12.6,0
	c0,0.9,0,1.9,0,2.9c-4.2,0-8.4,0-12.6,0c0,5.5,0,11.1,0,16.9c4.7-0.2,9.4-0.4,14.1-0.7c0,0.9,0,2,0,3.2c-6.2,0-12.4,0-18.7,0
	c0-13.1,0-26.3,0-39.5C57.1,22.2,63.2,22.2,69.4,22.2z"/>
<path class="st0" d="M142.7,53.9c0.3,0.3,0.5,0.5,0.7,0.8c0.8,1,1.4,2.1,2.3,3c2.2,2.2,4.9,3,7.8,2.1c3-0.9,4.5-3.2,5.1-6.1
	c0.8-4.2-0.5-6.9-4.2-8.9c-1.8-1-3.7-1.7-5.5-2.6c-2.5-1.2-4.7-2.7-5.7-5.5c-2.1-5.8-0.1-14.1,9-15.3c3.2-0.4,6.1,0.2,8.7,2
	c0.6,0.4,0.7,0.8,0.4,1.4c-0.4,1-0.6,2.2-1,3.2c-0.1,0.3-0.3,0.5-0.5,0.8c-0.2-0.2-0.4-0.4-0.5-0.7c-1-2.2-2.5-3.8-5-4.3
	c-4.1-0.8-7.7,2.1-7.8,6.3c-0.1,2.9,1,5.2,3.5,6.7c1.6,1,3.4,1.7,5.1,2.6c0.8,0.4,1.6,0.8,2.5,1.2c3.8,1.9,5.5,5,5.4,9.2
	c-0.2,7.8-6.2,13.3-14,12.6c-2.5-0.2-4.9-1-6.9-2.7c-0.4-0.4-0.5-0.7-0.4-1.3C142.1,57.1,142.3,55.6,142.7,53.9z"/>
<path class="st0" d="M236.8,62.7c-2.5-0.1-5.2-0.8-7.6-2.7c-0.5-0.4-0.6-0.7-0.5-1.4c0.3-1.3,0.5-2.6,0.8-3.9c0-0.2,0.2-0.3,0.3-0.5
	c0.2,0.1,0.4,0.2,0.5,0.4c0.7,0.9,1.2,1.9,1.9,2.7c2.2,2.6,5.6,3.6,8.4,2.5c3.2-1.2,4.7-3.8,5.1-7.1c0.4-3.6-1.1-6.3-4.3-7.9
	c-1.8-0.9-3.7-1.7-5.6-2.6c-2.6-1.3-4.9-2.9-5.8-5.8c-1.9-6.4,0.5-14.5,10.3-15c2.7-0.2,5.3,0.5,7.5,2.2c0.5,0.4,0.7,0.7,0.4,1.4
	c-0.4,1.1-0.6,2.2-1,3.3c-0.1,0.3-0.3,0.5-0.4,0.7c-0.2-0.2-0.4-0.4-0.5-0.6c-1-2.2-2.5-3.8-5-4.3c-4-0.7-7.6,2.1-7.8,6.2
	c-0.1,2.9,0.9,5.3,3.4,6.8c1.6,1,3.4,1.7,5.1,2.6c1.1,0.5,2.2,1,3.2,1.6c3,1.7,4.6,4.4,4.7,7.9c0.1,4.7-1.5,8.7-5.5,11.5
	C242.5,61.9,239.9,62.6,236.8,62.7z"/>
<path class="st0" d="M177.9,24.9c-3.9,0.2-7.6,0.4-11.4,0.7c0-1.1,0-2.2,0-3.3c8.9,0,17.9,0,26.8,0c0,1.1,0,2.2,0,3.3
	c-3.6-0.2-7.1-0.4-10.8-0.6c0,12.5,0,24.8,0,37.1c-1.6,0-3,0-4.6,0C177.9,49.7,177.9,37.4,177.9,24.9z"/>
<path class="st0" d="M148.5,81.1c2.7,3.4,5.4,6.7,8.1,10.2c-1.1,0-2.1,0-3.1,0c-0.3,0-0.5-0.3-0.7-0.5c-2.3-2.9-4.5-5.8-6.7-8.7
	c-0.4-0.6-1-0.8-1.6-0.6c0,3.2,0,6.5,0,9.8c-0.8,0-1.8,0-2.7,0c0-6.8,0-13.6,0-20.5c0.1,0,0.3,0,0.4,0c2,0,3.9-0.1,5.9,0
	c1,0,2,0.1,3,0.3c3.8,0.8,5,5.1,2.4,7.9C152,80.1,150.4,80.7,148.5,81.1z M144.2,71.9c0,1.9,0,3.7,0,5.5c0,0.9,0,1.7,0,2.7
	c2.1,0.2,4.1,0.3,5.9-0.9c1.4-1,2.1-2.7,1.7-4.5c-0.4-1.7-1.5-2.6-3.1-2.7C147.3,71.7,145.9,71.9,144.2,71.9z"/>
<path class="st0" d="M93.5,70.5c2.8,0,5.5-0.1,8.3,0c2.5,0.1,4.2,1.5,4.7,3.5c0.6,2.7-0.4,5.2-2.6,6.5c-1.9,1.1-4,1.3-6.1,1.3
	c-0.5,0-1,0-1.5-0.1c0,3.1,0,6.2,0,9.3c-0.9,0-1.8,0-2.7,0C93.5,84.2,93.5,77.4,93.5,70.5z M96.2,71.5c0,3.1,0,6,0,9.2
	c1,0,2,0.1,2.9,0c3.4-0.4,4.9-2.3,4.6-5.7c-0.1-1.8-1.1-3-2.9-3.2C99.4,71.5,97.8,71.6,96.2,71.5z"/>
<path class="st0" d="M130.8,91.2c-1,0-2,0-3,0c-0.6-1.5-1.2-3-1.8-4.6c-0.3-0.8-0.7-1.5-0.9-2.3c-0.3-0.9-0.7-1.2-1.6-1.1
	c-1.8,0.1-3.6,0-5.4,0c-0.7,0-1.1,0.2-1.4,0.9c-0.8,2.3-1.7,4.7-2.6,7c-0.6,0-1.3,0-2.1,0c0.6-1.3,1.1-2.6,1.7-3.8
	c2.4-5.4,4.8-10.9,7.2-16.3c0-0.1,0.1-0.2,0.2-0.3c0.2-0.2,0.3-0.4,0.5-0.6c0.2,0.2,0.5,0.4,0.6,0.6c0.9,2.1,1.8,4.2,2.6,6.3
	c1.9,4.5,3.9,9,5.8,13.5C130.6,90.8,130.7,91,130.8,91.2z M117.6,81.8c2.2,0,4.3,0,6.5,0c-1.1-2.5-2.2-4.9-3.3-7.5
	C119.7,76.9,118.7,79.3,117.6,81.8z"/>
<path class="st0" d="M181,87c0.3,0.5,0.5,0.7,0.6,1c1.3,1.9,3,2.7,5.2,2.4c1.6-0.2,2.9-1.5,3.3-3.1c0.4-1.9-0.1-3.3-1.7-4.2
	c-1.3-0.8-2.8-1.3-4.2-2c-3.6-1.6-4-4.8-2.9-7.5c0.2-0.4,0.5-0.9,0.8-1.2c2.1-2.5,7.1-2.9,9.7-0.7c-0.3,0.8-0.5,1.7-0.9,2.8
	c-0.3-0.5-0.4-0.7-0.6-1c-0.9-1.6-2.2-2.3-3.9-2c-1.5,0.2-2.7,1.3-3,2.8c-0.4,1.6,0.2,3.2,1.7,4.1c0.9,0.5,1.9,0.9,2.9,1.4
	c0.3,0.2,0.7,0.3,1,0.4c2,0.9,3.7,2.1,3.8,4.5c0.1,2.7-0.9,4.9-3.3,6.2c-2.8,1.5-5.7,1.5-8.5-0.2c-0.4-0.3-0.6-0.5-0.4-1
	C180.7,88.7,180.8,88,181,87z"/>
<path class="st0" d="M169.4,70.7c0,6.8,0,13.7,0,20.5c-0.9,0-1.8,0-2.7,0c0-6.8,0-13.6,0-20.5C167.5,70.7,168.4,70.7,169.4,70.7z"/>
<path class="st0" d="M55.7,18.7c1.9-2.1,3.7-4.1,5.6-6.2c0.9-0.9,1.7-1.9,2.6-2.8c0.9-0.9,1.9-0.9,2.6-0.1c0.8,0.8,0.8,2,0,2.9
	c-0.2,0.2-0.4,0.4-0.6,0.5c-2.7,1.9-5.3,3.7-8,5.5c-0.5,0.4-1.3,0.3-2,0.5C55.7,18.9,55.7,18.8,55.7,18.7z"/>
<text transform="matrix(1 0 0 1 236.6991 10.7537)" class="st0 st1 st2">APOIO</text>
</svg>
