<?xml version="1.0" encoding="utf-8"?>
<!-- Generator: Adobe Illustrator 22.1.0, SVG Export Plug-In . SVG Version: 6.00 Build 0)  -->
<svg version="1.1" id="Camada_1" xmlns="http://www.w3.org/2000/svg" xmlns:xlink="http://www.w3.org/1999/xlink" x="0px" y="0px"
	 viewBox="0 0 40 40" style="enable-background:new 0 0 40 40;" xml:space="preserve">
<style type="text/css">
	.st0{fill:#FF0099;}
</style>
<g>
	<path class="st0" d="M38.7,34.8c-0.4-1.8-4-16.5-4.6-18.9c2.2-4.9,0.1-9.5,0.1-9.7c-0.2-0.4-0.6-0.6-1.1-0.5L31.5,1
		c-0.2-0.5-0.7-0.7-1.1-0.6c-0.5,0.2-0.7,0.7-0.6,1.1l1.6,4.6l-0.8,0.3L29,1.9c-0.2-0.5-0.7-0.7-1.1-0.6c-0.5,0.2-0.7,0.7-0.6,1.1
		l1.6,4.6l-1,0.3l-1.6-4.6c-0.2-0.5-0.7-0.7-1.1-0.6c-0.5,0.2-0.7,0.7-0.6,1.1L26.2,8l-0.8,0.3l-1.6-4.6c-0.2-0.5-0.7-0.7-1.1-0.6
		c-0.5,0.2-0.7,0.7-0.6,1.1l1.6,4.6c-0.4,0.2-0.6,0.6-0.5,1c0.1,0.2,1.3,5.2,6,7.7c1,2.3,7.6,17.2,7.9,17.8c0.1,0.3,0.5,0.5,0.8,0.5
		c0.1,0,0.2,0,0.3,0C38.6,35.8,38.9,35.3,38.7,34.8z M30.7,16.6c-0.1-0.2-0.2-0.4-0.4-0.5c-3.1-1.5-4.5-4.4-5.1-5.8
		c0.1,0,0.1-0.1,0.2-0.1l2.1-0.7c0.1,0,0.1,0,0.2,0c0.1,0,0.1-0.1,0.2-0.1l2.3-0.8c0.1,0,0.1,0,0.2,0c0.1,0,0.1-0.1,0.2-0.1l2.1-0.7
		c0.1,0,0.1,0,0.2,0c0.4,1.4,1.1,4.6-0.5,7.7c-0.1,0.2-0.1,0.4-0.1,0.6c0,0.2,1.1,4.5,2.3,9.4C32.6,20.8,30.7,16.7,30.7,16.6z"/>
	<path class="st0" d="M34.7,26.5h-3.1c-0.4-6.3-5.9-6.7-6-6.7c-0.4,0-0.7,0.2-0.9,0.5c-0.2,0.3-0.1,0.7,0.1,1
		c0.7,0.8,0.3,1.3,0.2,1.5c-0.4,0.5-1,0.6-1.1,0.6c-0.1,0-0.1-0.1-0.2-0.1c0,0-0.1-0.1-0.2-0.1c-0.7-0.3-1.9-1-5.1-1
		c-0.3,0-0.5,0-0.8,0V15c0-3.5-2.5-5.9-3.4-6.7V4c0-0.2,0-1.2-0.7-1.9c-0.3-0.3-0.9-0.7-1.9-0.7H9.4c-1,0-1.6,0.4-1.9,0.7
		C6.9,2.8,6.8,3.8,6.8,4v4.3c-1,0.8-3.4,3.2-3.4,6.7v19.3c0,0.2,0,1.3,0.7,2.1c0.4,0.4,1,0.8,2.2,0.8h6.2c1.2,1.4,2.2,2.1,2.2,2.1
		c0.2,0.1,0.3,0.2,0.5,0.2h10.9c0.3,0,0.7-0.1,1.5-0.9c0.5-0.4,1.1-1,1.6-1.7c0.8-0.9,2.1-2.7,2.8-4.5c1.8-0.8,2.7-2.1,3-3.1
		c0.4-1.1,0.4-2,0.4-2.1C35.6,26.9,35.2,26.5,34.7,26.5z M22.8,24.7c0.1,0.1,0.3,0.1,0.4,0.2c0.9,0.5,2.4,0.2,3.3-0.8
		c0.4-0.5,0.8-1.2,0.7-2c1.1,0.5,2.5,1.8,2.7,4.4l-6.4,0h0h-6.7h-3.3c0,0,0,0,0,0c0,0,0.1-0.1,0.1-0.1c0,0,0,0,0-0.1
		c0,0,0.1-0.1,0.1-0.1c0,0,0,0,0-0.1c0,0,0.1-0.1,0.1-0.1c0,0,0,0,0,0c0-0.1,0.1-0.1,0.1-0.2c0,0,0,0,0,0c0,0,0.1-0.1,0.1-0.1
		c0,0,0,0,0.1-0.1c0,0,0.1-0.1,0.1-0.1c0,0,0,0,0.1-0.1c0,0,0.1-0.1,0.1-0.1c0,0,0,0,0.1-0.1c0,0,0.1-0.1,0.1-0.1c0,0,0,0,0.1-0.1
		c0,0,0.1-0.1,0.1-0.1c0,0,0,0,0.1,0c0.1,0,0.1-0.1,0.2-0.1c0,0,0,0,0,0c0.1,0,0.1-0.1,0.2-0.1c0,0,0.1,0,0.1,0
		c0.1,0,0.1-0.1,0.2-0.1c0,0,0.1,0,0.1,0c0.1,0,0.1,0,0.2-0.1c0,0,0.1,0,0.1,0c0.1,0,0.1,0,0.2-0.1c0,0,0.1,0,0.1,0
		c0.1,0,0.1,0,0.2-0.1c0,0,0.1,0,0.1,0c0.1,0,0.2-0.1,0.3-0.1c0,0,0,0,0,0c0,0,0,0,0,0c0.5-0.1,1-0.2,1.5-0.2
		C21.3,24,22.3,24.5,22.8,24.7z M8.8,3.3C9,3.2,9.2,3.1,9.4,3.1h2.2c0.3,0,0.5,0.1,0.6,0.2c0.2,0.2,0.2,0.5,0.2,0.6c0,0,0,0,0,0v3.9
		H8.6V3.9c0,0,0,0,0,0C8.6,3.8,8.7,3.5,8.8,3.3z M6.3,35.4c-0.4,0-0.7-0.1-0.8-0.3c-0.2-0.2-0.3-0.7-0.3-0.8c0,0,0,0,0-0.1V15
		c0-2.8,2.1-4.8,2.8-5.4h5c0.7,0.6,2.8,2.6,2.8,5.4v7.5c0,0,0,0,0,0c-0.1,0-0.3,0.1-0.4,0.2c0,0-0.1,0-0.1,0c-0.1,0-0.2,0.1-0.3,0.1
		c0,0,0,0-0.1,0c-0.1,0.1-0.3,0.1-0.4,0.2c0,0-0.1,0-0.1,0.1c-0.1,0.1-0.2,0.1-0.3,0.2c0,0-0.1,0-0.1,0.1c-0.1,0.1-0.2,0.1-0.3,0.2
		c0,0-0.1,0-0.1,0.1c-0.1,0.1-0.2,0.1-0.2,0.2c0,0-0.1,0-0.1,0.1c-0.1,0.1-0.2,0.2-0.3,0.2c0,0,0,0-0.1,0.1
		c-0.1,0.1-0.1,0.1-0.2,0.2c0,0,0,0-0.1,0.1c-0.1,0.1-0.2,0.2-0.2,0.2c0,0,0,0,0,0c-0.1,0.1-0.1,0.1-0.2,0.2c0,0,0,0-0.1,0.1
		c-0.1,0.1-0.1,0.1-0.2,0.2c0,0,0,0,0,0c-0.1,0.1-0.1,0.2-0.2,0.2c0,0,0,0,0,0.1c0,0.1-0.1,0.1-0.1,0.2c0,0,0,0,0,0
		c0,0.1-0.1,0.1-0.1,0.2c0,0,0,0,0,0.1c0,0.1-0.1,0.1-0.1,0.2c0,0,0,0,0,0c0,0.1-0.1,0.1-0.1,0.2c0,0,0,0,0,0H9.5
		c-0.5,0-0.9,0.4-0.9,0.9c0,0.2,0,0.4,0,0.5c0,0,0,0.1,0,0.1c0,0.2,0,0.3,0,0.5c0,0,0,0,0,0.1c0,0.2,0,0.3,0.1,0.5c0,0,0,0.1,0,0.1
		c0,0.2,0.1,0.3,0.1,0.5c0,0,0,0.1,0,0.1c0,0.1,0.1,0.3,0.1,0.4c0,0,0,0,0,0.1c0,0.2,0.1,0.3,0.1,0.5c0,0,0,0.1,0,0.1
		c0.1,0.3,0.2,0.6,0.3,0.9c0,0,0,0.1,0,0.1c0.1,0.1,0.1,0.3,0.2,0.4c0,0,0,0,0,0.1c0.1,0.1,0.1,0.3,0.2,0.4c0,0,0,0.1,0,0.1
		c0.1,0.1,0.1,0.3,0.2,0.4c0,0,0,0.1,0,0.1c0.1,0.1,0.1,0.2,0.2,0.4c0,0,0,0,0,0.1c0.1,0.1,0.1,0.3,0.2,0.4c0,0,0,0.1,0,0.1
		c0.1,0.1,0.1,0.2,0.2,0.4c0,0,0,0,0,0c0.1,0.1,0.1,0.2,0.2,0.3c0,0,0,0.1,0.1,0.1c0.1,0.1,0.1,0.2,0.2,0.3c0,0,0,0,0,0H6.3z
		 M31.1,31c-0.2,0.1-0.4,0.3-0.5,0.5c-0.9,2.7-3.8,5.7-4.6,6.2H15.6c-0.4-0.3-1.1-1-2-2c-1.4-1.7-3-4.2-3.3-7.4h1.4c0,0,0,0,0,0
		c0.1,0,0.1,0,0.2,0c0,0,0,0,0,0l4.8,0l6.7,0h10.2C33.5,29.1,32.9,30.3,31.1,31z"/>
</g>
</svg>
