<?xml version="1.0" encoding="utf-8"?>
<!-- Generator: Adobe Illustrator 22.1.0, SVG Export Plug-In . SVG Version: 6.00 Build 0)  -->
<svg version="1.1" id="Camada_1" xmlns="http://www.w3.org/2000/svg" xmlns:xlink="http://www.w3.org/1999/xlink" x="0px" y="0px"
	 viewBox="0 0 202.7 54.2" style="enable-background:new 0 0 202.7 54.2;" xml:space="preserve">
<style type="text/css">
	.st0{fill:#8826f4;}
	.st1{fill:#DBB2D4;}
</style>
<g>
	<path class="st0" d="M69.9,18c0.6-0.8,1.2-1.6,1.8-2.5c0.6-0.9,1.1-1.7,1.4-2.6s0.6-1.8,0.6-2.8c0-0.9-0.3-1.9-0.8-2.8
		c-0.2-0.3-0.4-0.5-0.8-0.9c-0.4-0.3-0.8-0.7-1.3-1.1c-0.5-0.4-1-0.7-1.4-1c-0.5-0.3-0.9-0.6-1.2-0.8l-1.4-1.1c0,0,2.7,2.5,4.3,7
		c0.1,0.6,0.1,1.2-0.1,1.8c-0.2,0.6-0.4,1.3-0.7,1.9c-0.3,0.6-0.7,1.2-1.1,1.8c-0.4,0.6-0.9,1-1.3,1.5c-4.5,5.7-9.3,11.1-14.4,16.1
		c-5.1,5.1-10.3,9.7-15.5,14c-0.7,0.6-1.4,1.1-2.2,1.7c-0.8,0.6-1.7,1-2.5,1.5c-0.8,0.4-1.7,0.7-2.5,1c-0.8,0.2-1.5,0.3-2.1,0.1
		s-1.1-0.5-1.5-1.1c-0.4-0.6-0.6-1.4-0.6-2.6c0-1,0.2-2.1,0.5-3.4c0.6-2.5,1.5-5,2.7-7.5c1.2-2.5,2.6-5,4.2-7.5
		c1.6-2.5,3.3-5.1,5.3-7.8s4-5.4,6.1-8.2c0.8-1.5,1.1-2.7,0.9-3.7c-0.2-1-0.8-1.7-1.6-2.2c-0.8-0.4-1.7-0.7-2.8-0.8
		c-1.1-0.1-2.2-0.1-3.4,0S36,6.3,35,6.5c-1,0.2-1.8,0.3-2.3,0.4c-2.1,0.5-4.2,1-6.3,1.5s-4.2,1.2-6.3,1.9C18,11.1,16,11.9,14,12.8
		c-2,0.9-3.9,1.9-5.8,3c-0.9,0.5-1.8,1.1-2.7,1.8c-0.9,0.7-1.7,1.4-2.4,2.2c-0.7,0.8-1.2,1.7-1.5,2.7c-0.3,1-0.3,2,0,3.1
		c0.1,0.4,0.3,1,0.6,1.6c0.3,0.6,0.6,1.3,0.9,1.9c0.3,0.7,0.6,1.4,1,2c0.4,0.7,0.7,1.3,0.9,1.8c0,0-0.9-7.8-0.8-8.7
		c0.1-0.9,0.4-1.7,1-2.5s1.2-1.4,2-2.1C8,19,8.7,18.4,9.5,17.9c3.3-1.9,6.8-3.5,10.6-4.9c3.8-1.4,7.5-2.5,11.2-3.2
		c0.2-0.1,0.7-0.1,1.3-0.3c0.7-0.1,1.4-0.2,2.3-0.4c0.9-0.1,1.8-0.2,2.7-0.3c0.9-0.1,1.8-0.1,2.6,0c0.8,0.1,1.5,0.2,2,0.4
		c0.5,0.2,0.8,0.6,0.8,1c0,0.1,0,0.3-0.1,0.5c-0.1,0.2-0.2,0.5-0.5,0.9c-0.3,0.4-0.7,1-1.2,1.7c-0.5,0.7-1.2,1.7-2.1,2.9
		c-1.5,2-3,4.1-4.4,6.2c-1.5,2.1-2.8,4.2-4.1,6.4c-1.3,2.2-2.5,4.4-3.6,6.7c-1.1,2.3-1.9,4.6-2.6,7c-0.5,1.7-0.8,3.3-0.8,4.8
		c0,1.7,0.3,3,0.8,4c0.5,0.9,1.2,1.6,2.1,1.9c0.9,0.3,1.9,0.4,3,0.3c1.1-0.2,2.3-0.5,3.4-0.9c1.2-0.5,2.3-1.1,3.4-1.8
		c1.1-0.7,2.1-1.4,3-2.2c2.4-2,4.7-4.1,7.1-6.2c2.4-2.1,4.8-4.3,7.3-6.8c2.5-2.4,5-5.1,7.7-7.9C64.2,24.9,67,21.6,69.9,18z"/>
	<path class="st0" d="M130.8,37.6L130.8,37.6c-0.4,0.1-0.6-0.1-0.4-0.5c0.2-0.4,0.6-0.9,1.2-1.5c0.6-0.6,1.2-1.4,2-2.2
		c0.8-0.8,1.5-1.7,2.2-2.5c0.2-0.2,0.3-0.4,0.5-0.8c0.2-0.4,0.4-0.8,0.5-1.2c0.1-0.4,0.1-0.8,0.1-1.2c-0.1-0.4-0.3-0.7-0.7-0.9
		c-0.5-0.3-1.1-0.5-1.9-0.5c-1.2,0-2.5,0.4-3.9,1.2c-1.4,0.8-2.7,1.8-4,3c-0.7,0.6-1.3,1.3-1.9,2c-0.3,0.4-0.6,0.8-0.9,1.1l-2.5,1.8
		h0l-0.8,0.5c-0.1-0.4-0.2-0.7-0.4-1c-0.2-0.3-0.4-0.6-0.6-0.9c-0.4-0.5-0.7-0.9-0.9-1.2c-0.2-0.3-0.3-0.6-0.3-0.7
		c0-0.2,0-0.4,0.1-0.5c0.1-0.1,0.3-0.3,0.5-0.5c0.3-0.2,0.6-0.5,1-0.9c0.4-0.4,0.8-0.8,1.2-1.3h0c0.4-0.5,0.8-0.9,1-1.3
		c0.2-0.4,0.3-0.7,0.4-1.1c0.1-0.3,0-0.6,0-0.8c-0.1-0.2-0.2-0.4-0.3-0.4h0c-0.2-0.2-0.5-0.2-0.8-0.2s-0.6,0.2-0.9,0.4
		c-0.3,0.2-0.6,0.4-0.9,0.7c-0.3,0.3-0.6,0.5-0.8,0.7c-0.6,0.6-1.1,1.2-1.5,1.8s-0.9,1.2-1.4,1.8c-0.4,0.4-0.8,0.8-1.1,1.1
		c-0.3,0.3-0.6,0.6-1,0.9c-0.3,0.3-0.7,0.6-1.1,0.9c-0.3,0.2-0.6,0.4-0.9,0.7l-1.7,1.2h0l-0.8,0.5c-0.1-0.4-0.2-0.7-0.4-1
		c-0.2-0.3-0.4-0.6-0.6-0.9c-0.4-0.5-0.7-0.9-0.9-1.2c-0.2-0.3-0.3-0.6-0.3-0.7c0-0.2,0-0.4,0.1-0.5c0.1-0.1,0.3-0.3,0.5-0.5
		c0.3-0.2,0.6-0.5,1-0.9c0.4-0.4,0.8-0.8,1.2-1.3h0c0.4-0.5,0.8-0.9,1-1.3c0.2-0.4,0.3-0.7,0.4-1.1c0.1-0.3,0-0.6,0-0.8
		c-0.1-0.2-0.2-0.4-0.3-0.4h0c-0.2-0.2-0.5-0.2-0.8-0.2s-0.6,0.2-0.9,0.4c-0.3,0.2-0.6,0.4-0.9,0.7c-0.3,0.3-0.6,0.5-0.8,0.7
		c-0.6,0.6-1.1,1.2-1.5,1.8s-0.9,1.2-1.4,1.8c-0.4,0.4-0.8,0.8-1.1,1.1c-0.3,0.3-0.6,0.6-1,0.9c-0.3,0.3-0.7,0.6-1.1,0.9
		c-0.3,0.2-0.7,0.5-1.1,0.8c-0.2,0.2-0.5,0.4-0.8,0.5c-0.7,0.5-1.4,0.9-2,1.3c-0.7,0.4-1.3,0.8-2,1.2c-0.6,0.4-1.2,0.6-1.8,0.8v0
		c-0.6,0.3-1.1,0.5-1.5,0.5c-0.4,0-0.6-0.1-0.8-0.3c-0.2-0.2-0.2-0.5-0.2-0.9c0.1-0.4,0.2-0.9,0.5-1.4c0.7-0.3,1.4-0.7,2.2-1.2
		c0.8-0.5,1.6-0.9,2.3-1.4c0.8-0.5,1.5-1,2.1-1.5c0.6-0.5,1.1-1,1.5-1.4c0.4-0.5,0.6-0.9,0.6-1.5c0.1-0.5,0-1-0.3-1.4
		c-0.2-0.4-0.6-0.7-1-1c-0.4-0.2-1-0.3-1.5-0.2c-1,0.2-1.9,0.6-2.8,1.3s-1.7,1.5-2.5,2.4c-0.7,0.9-1.4,1.8-1.9,2.8
		c-0.2,0.4-0.4,0.8-0.6,1.1c-0.1,0.1-0.3,0.2-0.4,0.3c-0.7,0.5-1.5,1-2.2,1.5c-0.8,0.5-1.4,0.9-2,1.3c-0.6,0.4-0.9,0.6-1,0.6
		c0.1-0.6,0.4-1.2,0.9-1.9c0.5-0.7,1.1-1.5,1.7-2.4c0.5-0.7,0.9-1.3,1.4-2s0.8-1.2,1.1-1.8c0.4-0.7,0.6-1.2,0.5-1.6
		c-0.1-0.4-0.3-0.7-0.6-0.9C88.6,27,88.2,27,87.6,27c-0.5,0-1,0.2-1.5,0.5v0c-0.4,0.3-0.9,0.7-1.6,1.2c-0.6,0.5-1.2,1-1.9,1.6
		s-1.4,1.2-2.1,1.9c-0.7,0.7-1.4,1.3-2,1.9c0.3-0.6,0.6-1.1,0.8-1.6c0.2-0.5,0.5-0.9,0.7-1.3c0.2-0.4,0.4-0.8,0.6-1.2
		c0.2-0.4,0.4-0.8,0.7-1.2c0.4-0.7,0.6-1.3,0.6-1.8c0-0.5-0.2-0.8-0.4-1c-0.3-0.2-0.6-0.2-1,0c-0.4,0.2-0.8,0.5-1.2,1
		c-1,1.1-2.1,2.3-3.3,3.5c-0.9,0.9-2,1.9-3.3,2.9c-0.1,0.1-0.3,0.2-0.4,0.3c-0.3,0.3-0.7,0.5-1,0.8l0,0c-0.1,0.1-0.3,0.2-0.4,0.3
		c-0.5,0.4-1,0.7-1.5,1.1c-0.5,0.3-0.9,0.6-1.4,0.9c-0.5,0.3-1,0.6-1.7,1h0c-0.5,0.1-0.6-0.1-0.4-0.5c0.2-0.4,0.6-0.9,1.2-1.5
		c0.6-0.6,1.2-1.4,2-2.2c0.8-0.8,1.5-1.7,2.2-2.5c0.2-0.2,0.3-0.4,0.5-0.8c0.2-0.4,0.4-0.8,0.5-1.2c0.1-0.4,0.1-0.8,0.1-1.2
		c-0.1-0.4-0.3-0.7-0.7-0.9c-0.5-0.3-1.1-0.5-1.9-0.5c-1.2,0-2.5,0.4-3.9,1.2c-1.4,0.8-2.7,1.8-4,3c-0.7,0.6-1.3,1.3-1.9,2
		c-0.6,0.7-1.1,1.4-1.5,2.1c-0.4,0.7-0.8,1.4-1,2.1c-0.2,0.7-0.4,1.3-0.4,1.8c0,0.6,0.2,1,0.5,1.5c0.4,0.4,0.8,0.6,1.4,0.6
		c0.4,0,0.7-0.1,1.1-0.2s0.8-0.3,1.1-0.5c0.4-0.2,0.7-0.4,1-0.6c0.3-0.2,0.5-0.3,0.7-0.5l0.5-0.4c0,0.2,0,0.3-0.1,0.4
		c0,0.1,0,0.2,0,0.3c0,0.6,0.2,1,0.5,1.2c0.3,0.3,0.9,0.2,1.7-0.1c0.4-0.2,1-0.4,1.6-0.8c0.6-0.4,1.3-0.8,1.9-1.2
		c0.7-0.4,1.4-0.9,2-1.4c0.2-0.2,0.4-0.3,0.6-0.4l0,0.1c1.3-0.9,2.3-1.7,3-2.2c0.7-0.5,1.2-1,1.6-1.3l-0.9,1.6
		c-0.5,0.9-1,1.8-1.5,2.7S73,39.3,72.7,40c0,0.5,0.2,0.8,0.5,1c0.4,0.2,0.7,0.3,1.1,0.1c1-0.8,2.1-1.8,3.3-2.9
		c1.2-1.1,2.3-2.2,3.5-3.3c0.8-0.7,1.5-1.4,2.3-2.1c0.7-0.7,1.5-1.4,2.1-2l-0.3,0.4c-0.4,0.6-0.9,1.2-1.4,1.9
		c-0.5,0.7-1,1.4-1.4,2.2c-0.4,0.7-0.8,1.5-1,2.2c-0.3,0.7-0.3,1.3-0.3,1.9l0,0.1c0.2,0.5,0.6,0.8,1.1,1c0.5,0.2,0.9,0.2,1.3,0.1
		c0.4-0.2,0.9-0.4,1.4-0.7s1.1-0.6,1.6-1c0.6-0.4,1.1-0.8,1.7-1.2c0.2-0.1,0.3-0.2,0.5-0.4c0,0,0,0,0,0c0,0.6,0.1,1.2,0.3,1.7
		c0.2,0.5,0.5,0.9,0.9,1.2c0.4,0.3,1,0.5,1.7,0.5c0.8,0,1.6-0.2,2.4-0.5c0.8-0.3,1.7-0.7,2.5-1.2c0.9-0.5,1.7-1.1,2.6-1.7
		c0.4-0.3,0.8-0.6,1.2-0.9l0,0c0.8-0.6,1.4-1,1.9-1.3c0.4-0.3,0.8-0.6,1.2-0.9l1.3-1.1l0,0c0.3,0.5,0.6,1,1,1.5
		c0.4,0.5,0.7,1,0.9,1.5c0.1,0.3,0.1,0.7-0.1,1c-0.2,0.3-0.4,0.6-0.7,0.8c-0.3,0.2-0.7,0.3-1,0.3c-0.4,0-0.7-0.2-0.9-0.5
		c-0.2-0.3-0.5-0.5-0.8-0.6c-0.3-0.1-0.5-0.2-0.8-0.2c-0.3,0-0.5,0-0.7,0.1c-0.2,0.1-0.4,0.2-0.5,0.3c-0.2,0.3-0.3,0.6-0.3,0.8
		c0,0.3,0.1,0.5,0.2,0.8c0.1,0.3,0.3,0.5,0.4,0.6c0.2,0.2,0.3,0.3,0.4,0.4c0.8,0.5,1.6,0.7,2.4,0.7c0.7,0,1.4-0.2,2.2-0.5
		c0.8-0.3,1.5-0.8,2.3-1.2c0.7-0.5,1.5-1,2.1-1.5c0.5-0.4,1-0.8,1.5-1.1c0.6-0.4,1.2-0.8,1.5-1.1c0.4-0.3,0.8-0.6,1.2-0.9l1.3-1.1
		l0,0c0.3,0.5,0.6,1,1,1.5c0.4,0.5,0.7,1,0.9,1.5c0.1,0.3,0.1,0.7-0.1,1c-0.2,0.3-0.4,0.6-0.7,0.8c-0.3,0.2-0.7,0.3-1,0.3
		c-0.4,0-0.7-0.2-0.9-0.5c-0.2-0.3-0.5-0.5-0.8-0.6c-0.3-0.1-0.5-0.2-0.8-0.2c-0.3,0-0.5,0-0.7,0.1c-0.2,0.1-0.4,0.2-0.5,0.3
		c-0.2,0.3-0.3,0.6-0.3,0.8c0,0.3,0.1,0.5,0.2,0.8c0.1,0.3,0.3,0.5,0.4,0.6c0.2,0.2,0.3,0.3,0.4,0.4c0.8,0.5,1.6,0.7,2.4,0.7
		c0.7,0,1.4-0.2,2.2-0.5c0.8-0.3,1.5-0.8,2.3-1.2c0.6-0.4,1.3-0.8,1.8-1.3c-0.1,0.3-0.1,0.6-0.1,0.8c0,0.6,0.2,1,0.5,1.5
		c0.4,0.4,0.8,0.6,1.4,0.6c0.4,0,0.7-0.1,1.1-0.2s0.8-0.3,1.1-0.5c0.4-0.2,0.7-0.4,1-0.6c0.3-0.2,0.5-0.3,0.7-0.5l0.5-0.4
		c0,0.2,0,0.3-0.1,0.4c0,0.1,0,0.2,0,0.3c0,0.6,0.2,1,0.5,1.2c0.3,0.3,0.9,0.2,1.7-0.1c0.4-0.2,1-0.4,1.6-0.8
		c0.6-0.4,1.3-0.8,1.9-1.2c0.7-0.4,1.4-0.9,2-1.4s1.3-0.9,1.9-1.3C137.4,35.8,131.4,37.3,130.8,37.6z M94.7,31.1
		c0.4-0.4,0.9-0.9,1.5-1.6v0c0.2-0.1,0.3-0.3,0.5-0.4c0.2-0.1,0.3-0.2,0.4-0.3c0.6-0.3,0.9-0.5,0.9-0.4c0,0.3-0.2,0.7-0.6,1.1
		s-0.8,0.8-1.3,1.2c-0.4,0.3-0.8,0.5-1.2,0.8c-0.4,0.3-0.8,0.5-1.2,0.7C94,31.9,94.3,31.5,94.7,31.1z M63.5,35.5L63.5,35.5
		c-0.4,0.3-0.8,0.7-1.2,1c-0.4,0.3-0.8,0.6-1.1,0.9c-0.4,0.3-0.7,0.4-0.9,0.5c-0.3,0.1-0.4,0.1-0.5,0c-0.2-0.2-0.1-0.6,0.2-1.2
		c0.3-0.5,0.6-1.1,1-1.7c0.4-0.6,0.8-1.1,1.2-1.6c0.4-0.5,0.7-0.8,0.9-1c0.9-0.9,1.8-1.6,2.6-2.2c0.9-0.6,1.6-1.1,2.3-1.4h0
		c0.6-0.3,1-0.4,1.2-0.4c0.2,0,0.4,0.1,0.4,0.3c0.1,0.2-0.1,0.5-0.4,1c-0.3,0.5-0.8,1-1.4,1.6c-0.6,0.6-1.2,1.3-1.9,2
		C65,34.2,64.2,34.9,63.5,35.5z M128.1,35.5L128.1,35.5c-0.4,0.3-0.8,0.7-1.2,1c-0.4,0.3-0.8,0.6-1.1,0.9c-0.4,0.3-0.7,0.4-0.9,0.5
		c-0.3,0.1-0.4,0.1-0.5,0c-0.2-0.2-0.1-0.6,0.2-1.2c0.3-0.5,0.6-1.1,1-1.7c0.4-0.6,0.8-1.1,1.2-1.6c0.4-0.5,0.7-0.8,0.9-1
		c0.9-0.9,1.8-1.6,2.6-2.2c0.9-0.6,1.6-1.1,2.3-1.4h0c0.6-0.3,1-0.4,1.2-0.4c0.2,0,0.4,0.1,0.4,0.3c0.1,0.2-0.1,0.5-0.4,1
		c-0.3,0.5-0.8,1-1.4,1.6c-0.6,0.6-1.2,1.3-1.9,2C129.5,34.2,128.8,34.9,128.1,35.5z"/>
	<path class="st0" d="M153.4,43.1c-2.4,0.4-4.7,1-6.9,1.6c-2.2,0.7-4.4,1.5-6.4,2.5c-0.1,0.1-0.2,0.1-0.4,0.2
		c-0.2,0.1-0.3,0.1-0.4,0.2c-0.1,0-0.3,0.1-0.4,0.1c-0.1,0-0.2-0.1-0.2-0.2c0-0.2,0.1-0.5,0.2-0.9c0.2-0.4,0.4-0.8,0.8-1.4
		c1.2-1.9,2.4-3.7,3.8-5.4c1.4-1.8,2.8-3.5,4.3-5.2s3-3.4,4.5-5s3.1-3.2,4.6-4.8c1.9-2,3.8-4,5.8-6c1.9-2.1,3.7-4.1,5.4-6.1l0.6-0.7
		c0.4-0.6,0.8-1.1,1.2-1.6c0.4-0.5,0.8-0.9,1-1.5c1.2-4.1-2.8-7.5-2.8-7.5c0.3,0.6,0.4,1.1,0.6,1.5s0.2,0.7,0.3,0.9
		c0.1,0.2,0.1,0.4,0.2,0.6c0,0.2,0,0.3,0,0.4c0,0.9-0.2,1.8-0.7,2.7s-0.9,1.6-1.5,2.3c-2,2.5-4,4.9-6.2,7.2
		c-2.1,2.3-4.3,4.6-6.5,6.9c-2.2,2.2-4.3,4.4-6.4,6.7c-2.1,2.2-4.1,4.6-6,7c-1.1,1.4-2.2,2.9-3.2,4.4s-1.9,3.1-2.6,4.8
		c-0.3,0.9-0.5,1.6-0.5,2.1c0,0.5,0.2,0.9,0.4,1.2c0.3,0.3,0.6,0.4,1,0.5c0.4,0,0.9,0,1.4-0.1c0.5-0.1,1.1-0.3,1.6-0.5
		c0.6-0.2,1.1-0.4,1.6-0.7c10.7-4.8,26.5-7.3,26.5-7.3c-2.5,0-5.1,0.1-7.6,0.3C158.2,42.4,155.7,42.7,153.4,43.1z"/>
	<path class="st0" d="M192.7,38.6c-0.4,0-0.6-0.1-0.8-0.3c-0.2-0.2-0.2-0.5-0.2-0.9c0.1-0.4,0.2-0.9,0.5-1.4
		c0.7-0.3,1.4-0.7,2.2-1.2s1.6-0.9,2.3-1.4s1.5-1,2.1-1.5c0.6-0.5,1.1-1,1.5-1.4c0.4-0.5,0.6-0.9,0.6-1.5c0.1-0.5,0-1-0.3-1.4
		c-0.2-0.4-0.6-0.7-1-1c-0.4-0.2-1-0.3-1.5-0.2c-1,0.2-1.9,0.6-2.8,1.3c-0.9,0.7-1.7,1.5-2.5,2.4S191.6,32,191,33
		c-0.2,0.4-0.4,0.8-0.6,1.1c-0.6,0.4-1.1,0.8-1.7,1.1c-0.8,0.6-1.5,1-2.1,1.5s-1.1,0.8-1.5,1c-0.4,0.3-0.6,0.4-0.7,0.4
		c0.2-0.7,0.4-1.3,0.9-2.1c0.4-0.7,0.9-1.4,1.5-2.2c0.5-0.7,1.1-1.4,1.6-2.1c0.5-0.7,1-1.4,1.3-2c0.2-0.5,0.3-0.9,0.3-1.3
		c0-0.5-0.1-0.9-0.4-1.1c-0.3-0.2-0.6-0.3-1-0.3c-0.6,0-1.2,0.2-1.9,0.5c-0.6,0.4-1.3,0.8-1.9,1.3c-0.6,0.5-1.2,1-1.7,1.6
		c-0.5,0.5-1,1-1.3,1.3l-1,0.9c0.4-0.5,0.7-1,1-1.5s0.6-1,0.9-1.5c0.2-0.6,0.3-1.1,0.3-1.4c0-0.5-0.1-0.8-0.4-1
		c-0.3-0.2-0.6-0.3-0.9-0.4c-0.4,0-0.7,0-1.1,0.2c-0.4,0.1-0.7,0.3-0.9,0.4c-0.5,0.3-1,0.7-1.6,1.2s-1.2,1-1.9,1.6
		c-0.7,0.6-1.3,1.2-2,1.8c-0.7,0.6-1.3,1.2-1.9,1.8c0.6-1,1-1.9,1.5-2.8c0.4-0.9,0.9-1.7,1.3-2.6c0.1-0.2,0.2-0.4,0.4-0.7
		c0.1-0.3,0.2-0.5,0.3-0.8c0.1-0.4,0.1-0.8-0.1-1c-0.2-0.2-0.5-0.3-0.9-0.3c-0.3,0-0.6,0.1-0.9,0.3c-0.4,0.2-0.8,0.6-1.3,1.2v0
		c-0.8,0.9-1.8,1.9-3,3.2c-1.2,1.2-2.8,2.5-4.7,4l0,0.1c-0.2,0.1-0.4,0.3-0.5,0.4c-0.7,0.5-1.4,0.9-2,1.3c-0.7,0.4-1.3,0.8-2,1.2
		c-0.6,0.4-1.2,0.6-1.8,0.8v0c-0.6,0.3-1.1,0.5-1.5,0.5c-0.4,0-0.6-0.1-0.8-0.3c-0.2-0.2-0.2-0.5-0.2-0.9c0.1-0.4,0.2-0.9,0.5-1.4
		c0.7-0.3,1.4-0.7,2.2-1.2s1.6-0.9,2.3-1.4s1.5-1,2.1-1.5c0.6-0.5,1.1-1,1.5-1.4c0.4-0.5,0.6-0.9,0.6-1.5c0.1-0.5,0-1-0.3-1.4
		c-0.2-0.4-0.6-0.7-1-1c-0.4-0.2-1-0.3-1.5-0.2c-1,0.2-1.9,0.6-2.8,1.3c-0.9,0.7-1.7,1.5-2.5,2.4s-1.4,1.8-1.9,2.8
		c-0.6,1-1,1.8-1.2,2.5c-0.2,0.6-0.3,1.3-0.3,1.9c0,0.6,0.1,1.2,0.3,1.7c0.2,0.5,0.5,0.9,0.9,1.2c0.4,0.3,1,0.5,1.7,0.5
		c0.8,0,1.6-0.2,2.4-0.5c0.8-0.3,1.7-0.7,2.5-1.2c0.9-0.5,1.7-1.1,2.6-1.7c0.4-0.3,0.7-0.5,1.1-0.8l0,0c1.3-1,2.3-1.7,3-2.2
		c0.7-0.5,1.2-1,1.6-1.3l-0.8,1.5c-0.5,0.9-1,1.8-1.5,2.7c-0.5,0.9-0.9,1.8-1.3,2.7c0,0.5,0.2,0.8,0.5,1c0.4,0.2,0.7,0.3,1.1,0.1
		c2-1.7,4-3.4,5.7-5.2c1.8-1.8,3.6-3.5,5.5-5.1c-0.9,1.3-1.7,2.6-2.5,3.8c-0.8,1.3-1.7,2.5-2.6,3.7c-0.2,0.3-0.3,0.6-0.2,1
		s0.2,0.6,0.3,0.8c0.2,0.2,0.4,0.4,0.7,0.4c0.3,0.1,0.6,0,0.8-0.2v0c0.1-0.1,0.4-0.3,1-0.9c0.6-0.5,1.4-1.2,2.3-2.1
		c0.9-0.8,2-1.8,3.2-2.9s2.4-2.2,3.7-3.4c-0.5,0.6-0.9,1.2-1.4,1.9c-0.5,0.7-1,1.4-1.4,2.2c-0.4,0.7-0.8,1.5-1,2.2s-0.3,1.4-0.3,2
		c0.2,0.5,0.6,0.8,1.1,1c0.5,0.2,0.9,0.2,1.3,0.1c0.5-0.2,1-0.4,1.5-0.7s1.1-0.7,1.7-1c0.6-0.4,1.1-0.8,1.7-1.2
		c0.2-0.2,0.4-0.3,0.6-0.4c0,0,0,0,0,0c0,0.6,0.1,1.2,0.3,1.7c0.2,0.5,0.5,0.9,0.9,1.2c0.4,0.3,1,0.5,1.7,0.5c0.8,0,1.6-0.2,2.4-0.5
		c0.8-0.3,1.7-0.7,2.5-1.2c0.9-0.5,1.7-1.1,2.6-1.7s1.7-1.2,2.5-1.8C202.4,35.6,193.1,38.6,192.7,38.6z M195.4,31.1
		c0.4-0.4,0.9-0.9,1.5-1.6v0c0.2-0.1,0.3-0.3,0.5-0.4c0.2-0.1,0.3-0.2,0.4-0.3c0.6-0.3,0.9-0.5,0.9-0.4c0,0.3-0.2,0.7-0.6,1.1
		c-0.4,0.4-0.8,0.8-1.3,1.2c-0.4,0.3-0.8,0.5-1.2,0.8c-0.4,0.3-0.8,0.5-1.2,0.7C194.7,31.9,195,31.5,195.4,31.1z M159.4,31.1
		c0.4-0.4,0.9-0.9,1.5-1.6v0c0.2-0.1,0.3-0.3,0.5-0.4c0.2-0.1,0.3-0.2,0.4-0.3c0.6-0.3,0.9-0.5,0.9-0.4c0,0.3-0.2,0.7-0.6,1.1
		c-0.4,0.4-0.8,0.8-1.3,1.2c-0.4,0.3-0.8,0.5-1.2,0.8c-0.4,0.3-0.8,0.5-1.2,0.7C158.7,31.9,159.1,31.5,159.4,31.1z"/>
</g>
<g>
	<polygon class="st1" points="84.9,14.8 81.3,14.8 81.3,11.8 80.3,11.8 80.3,18.9 81.3,18.9 81.3,15.7 84.9,15.7 84.9,18.9 
		85.9,18.9 85.9,11.8 84.9,11.8 	"/>
	<path class="st1" d="M90.9,11.8l-3.1,7.1h1.1l0.7-1.8H93l0.7,1.8h1.1l-3-7.1H90.9z M90,16.3l1.3-3.3h0l1.3,3.3H90z"/>
	<rect x="96.8" y="11.8" class="st1" width="1" height="7.1"/>
	<path class="st1" d="M104.3,15.5c0.2-0.1,0.4-0.3,0.6-0.4s0.3-0.4,0.3-0.6c0.1-0.2,0.1-0.4,0.1-0.7c0-0.2,0-0.4-0.1-0.7
		c-0.1-0.2-0.2-0.4-0.4-0.6c-0.2-0.2-0.4-0.3-0.7-0.5c-0.3-0.1-0.7-0.2-1.1-0.2h-2.5v7.1h1v-3.1h1.1l1.8,3.1h1.2l-2-3.2
		C103.8,15.7,104.1,15.6,104.3,15.5z M102.8,15h-1.3v-2.3h1.3c0.2,0,0.4,0,0.6,0c0.2,0,0.3,0.1,0.5,0.2c0.1,0.1,0.3,0.2,0.3,0.3
		c0.1,0.1,0.1,0.3,0.1,0.6c0,0.2,0,0.4-0.1,0.6c-0.1,0.1-0.2,0.3-0.3,0.3c-0.1,0.1-0.3,0.1-0.5,0.2C103.1,14.9,102.9,15,102.8,15z"
		/>
	<path class="st1" d="M114.7,15.3c-0.3-0.1-0.5-0.3-0.8-0.3c-0.3-0.1-0.6-0.2-0.8-0.3c-0.3-0.1-0.5-0.2-0.6-0.4
		c-0.2-0.2-0.3-0.4-0.3-0.7c0-0.1,0-0.2,0.1-0.4s0.1-0.2,0.2-0.4c0.1-0.1,0.2-0.2,0.4-0.3c0.2-0.1,0.4-0.1,0.7-0.1
		c0.3,0,0.5,0.1,0.8,0.2c0.2,0.1,0.4,0.3,0.5,0.4l0.8-0.7c-0.3-0.3-0.6-0.5-0.9-0.6c-0.4-0.1-0.7-0.2-1.1-0.2
		c-0.4,0-0.8,0.1-1.1,0.2c-0.3,0.1-0.6,0.3-0.7,0.5s-0.3,0.4-0.4,0.6c-0.1,0.2-0.1,0.5-0.1,0.7c0,0.5,0.1,0.8,0.3,1.1
		s0.4,0.5,0.6,0.6c0.3,0.2,0.5,0.3,0.8,0.4c0.3,0.1,0.6,0.2,0.8,0.3c0.3,0.1,0.5,0.2,0.6,0.4s0.3,0.4,0.3,0.6c0,0.2,0,0.4-0.1,0.5
		c-0.1,0.1-0.2,0.3-0.3,0.4s-0.3,0.2-0.5,0.2c-0.2,0-0.3,0.1-0.5,0.1c-0.3,0-0.6-0.1-0.8-0.2c-0.3-0.1-0.5-0.3-0.7-0.6l-0.8,0.7
		c0.2,0.3,0.6,0.6,1,0.7s0.8,0.2,1.3,0.2c0.3,0,0.7-0.1,1-0.2c0.3-0.1,0.6-0.2,0.8-0.4c0.2-0.2,0.4-0.4,0.5-0.7s0.2-0.6,0.2-0.9
		c0-0.4-0.1-0.8-0.3-1C115.1,15.7,114.9,15.5,114.7,15.3z"/>
	<polygon class="st1" points="117.2,12.7 119.5,12.7 119.5,18.9 120.4,18.9 120.4,12.7 122.7,12.7 122.7,11.8 117.2,11.8 	"/>
	<polygon class="st1" points="126.9,14.9 125,11.8 123.7,11.8 126.4,15.9 126.4,18.9 127.4,18.9 127.4,15.9 130,11.8 128.9,11.8 	
		"/>
	<polygon class="st1" points="132.8,11.8 131.9,11.8 131.9,18.9 136.1,18.9 136.1,18 132.8,18 	"/>
	<rect x="138" y="11.8" class="st1" width="1" height="7.1"/>
	<path class="st1" d="M145.1,15.3c-0.3-0.1-0.5-0.3-0.8-0.3c-0.3-0.1-0.6-0.2-0.8-0.3c-0.3-0.1-0.5-0.2-0.6-0.4
		c-0.2-0.2-0.3-0.4-0.3-0.7c0-0.1,0-0.2,0.1-0.4s0.1-0.2,0.2-0.4c0.1-0.1,0.2-0.2,0.4-0.3c0.2-0.1,0.4-0.1,0.7-0.1
		c0.3,0,0.5,0.1,0.8,0.2c0.2,0.1,0.4,0.3,0.5,0.4l0.8-0.7c-0.3-0.3-0.6-0.5-0.9-0.6c-0.4-0.1-0.7-0.2-1.1-0.2
		c-0.4,0-0.8,0.1-1.1,0.2c-0.3,0.1-0.6,0.3-0.7,0.5s-0.3,0.4-0.4,0.6s-0.1,0.5-0.1,0.7c0,0.5,0.1,0.8,0.3,1.1
		c0.2,0.3,0.4,0.5,0.6,0.6c0.3,0.2,0.5,0.3,0.8,0.4c0.3,0.1,0.6,0.2,0.8,0.3c0.3,0.1,0.5,0.2,0.6,0.4c0.2,0.1,0.3,0.4,0.3,0.6
		c0,0.2,0,0.4-0.1,0.5c-0.1,0.1-0.2,0.3-0.3,0.4c-0.1,0.1-0.3,0.2-0.5,0.2c-0.2,0-0.3,0.1-0.5,0.1c-0.3,0-0.6-0.1-0.8-0.2
		c-0.3-0.1-0.5-0.3-0.7-0.6l-0.8,0.7c0.2,0.3,0.6,0.6,1,0.7c0.4,0.2,0.8,0.2,1.3,0.2c0.3,0,0.7-0.1,1-0.2c0.3-0.1,0.6-0.2,0.8-0.4
		s0.4-0.4,0.5-0.7c0.1-0.3,0.2-0.6,0.2-0.9c0-0.4-0.1-0.8-0.3-1C145.5,15.7,145.3,15.5,145.1,15.3z"/>
	<polygon class="st1" points="147.6,11.8 147.6,12.7 149.9,12.7 149.9,18.9 150.8,18.9 150.8,12.7 153.1,12.7 153.1,11.8 	"/>
</g>
</svg>
