<?xml version="1.0" encoding="utf-8"?>
<!-- Generator: Adobe Illustrator 22.1.0, SVG Export Plug-In . SVG Version: 6.00 Build 0)  -->
<svg version="1.1" id="Camada_1" xmlns="http://www.w3.org/2000/svg" xmlns:xlink="http://www.w3.org/1999/xlink" x="0px" y="0px"
	 viewBox="0 0 50 50" style="enable-background:new 0 0 50 50;" xml:space="preserve">
<style type="text/css">
	.st0{fill:#FF00B1;}
</style>
<path class="st0" d="M31.2,28.7H4.9c-0.8,0-1.5-0.7-1.5-1.5c0-0.8,0.7-1.5,1.5-1.5h26.3c0.8,0,1.5,0.7,1.5,1.5
	C32.7,28,32,28.7,31.2,28.7z"/>
<path class="st0" d="M5.8,24.3h24.7c-2.1-5.7-6-9.2-12.7-9.3C11.3,15.5,7.7,19.1,5.8,24.3z"/>
<path class="st0" d="M41,49.4c-2.1,0-3.3-0.9-4-1.6c-1.4-1.5-1.5-3.4-1.5-3.9V13.6c-0.1-0.4-0.3-2.3-1.3-4.1C32.9,7.2,30.8,6,28.1,6
	c-5.5,0-7.1,5-7.5,7.1c-0.1,0.5-0.1,0.6-0.1,0.6c-1.8,0-3.7,0-5,0.1c0-0.2,0-0.8,0.1-1c0.7-4.4,3.9-11.8,12.6-11.8
	c9.1,0,12.2,8.1,12.5,12.3v0.2v30v0.2c0,0,0,0.7,0.4,0.7c1.4,0,2.5,1.1,2.5,2.5C43.5,48.2,42.4,49.4,41,49.4z"/>
<path class="st0" d="M13,31c0,0-1.6,2-1.6,2.7s0.6,1.5,1.6,1.5s1.6-0.8,1.6-1.5C14.6,33.1,13,31,13,31z"/>
<path class="st0" d="M18.1,31c0,0-1.6,2-1.6,2.7s0.6,1.5,1.6,1.5c1,0,1.6-0.8,1.6-1.5C19.7,33.1,18.1,31,18.1,31z"/>
<path class="st0" d="M23.3,31c0,0-1.6,2-1.6,2.7s0.6,1.5,1.6,1.5s1.6-0.8,1.6-1.5C24.9,33.1,23.3,31,23.3,31z"/>
<path class="st0" d="M13,42.1c0,0-1.6,2-1.6,2.7s0.6,1.5,1.6,1.5s1.6-0.8,1.6-1.5C14.6,44.1,13,42.1,13,42.1z"/>
<path class="st0" d="M18.1,42.1c0,0-1.6,2-1.6,2.7s0.6,1.5,1.6,1.5c1,0,1.6-0.8,1.6-1.5C19.7,44.1,18.1,42.1,18.1,42.1z"/>
<path class="st0" d="M23.3,42.1c0,0-1.6,2-1.6,2.7s0.6,1.5,1.6,1.5s1.6-0.8,1.6-1.5C24.9,44.1,23.3,42.1,23.3,42.1z"/>
<path class="st0" d="M15.6,36.6c0,0-1.6,2-1.6,2.7s0.6,1.5,1.6,1.5c1,0,1.6-0.8,1.6-1.5C17.2,38.6,15.6,36.6,15.6,36.6z"/>
<path class="st0" d="M10.5,36.6c0,0-1.6,2-1.6,2.7s0.6,1.5,1.6,1.5s1.6-0.8,1.6-1.5C12.1,38.6,10.5,36.6,10.5,36.6z"/>
<path class="st0" d="M20.7,36.6c0,0-1.6,2-1.6,2.7s0.6,1.5,1.6,1.5c1,0,1.6-0.8,1.6-1.5C22.3,38.6,20.7,36.6,20.7,36.6z"/>
<path class="st0" d="M25.9,36.6c0,0-1.6,2-1.6,2.7s0.6,1.5,1.6,1.5c1,0,1.6-0.8,1.6-1.5C27.4,38.6,25.9,36.6,25.9,36.6z"/>
</svg>
