<?xml version="1.0" encoding="utf-8"?>
<!-- Generator: Adobe Illustrator 22.1.0, SVG Export Plug-In . SVG Version: 6.00 Build 0)  -->
<svg version="1.1" id="Camada_1" xmlns="http://www.w3.org/2000/svg" xmlns:xlink="http://www.w3.org/1999/xlink" x="0px" y="0px"
	 viewBox="0 0 154 181" style="enable-background:new 0 0 154 181;" xml:space="preserve">
<style type="text/css">
	.st0{fill:#FF00B1;}
</style>
<path class="st0" d="M101.5,101.5H13.2c-2.7,0-5-2.2-5-5s2.2-5,5-5h88.2c2.7,0,5,2.2,5,5S104.2,101.5,101.5,101.5z"/>
<path class="st0" d="M16,86.8h82.8c-7.1-19.2-20.3-30.9-42.5-31.2C34.4,57.1,22.6,69.2,16,86.8z"/>
<path class="st0" d="M134.3,171c-7,0-11.2-2.9-13.5-5.4c-4.8-5-5-11.4-4.9-13.2V50.9c-0.2-1.3-1.1-7.6-4.5-13.6
	c-4.5-8-11.3-12-20.6-12C72.2,25.3,67,42.2,65.7,49c-0.3,1.6-0.4,1.9-0.4,2.1c-6-0.1-12.4,0.1-16.9,0.2c0.1-0.7,0.1-2.6,0.2-3.4
	C50.8,33,61.8,8.3,90.8,8.3c30.5,0,40.9,27.1,42.1,41.4l0,0.7v100.7v0.6c0,0-0.1,2.2,1.4,2.3c4.7,0,8.5,3.8,8.5,8.5
	S139,171,134.3,171z"/>
<path class="st0" d="M40.3,109.4c0,0-5.3,6.8-5.3,9.2s2.1,5.1,5.3,5.1s5.3-2.7,5.3-5.1S40.3,109.4,40.3,109.4z"/>
<path class="st0" d="M57.5,109.4c0,0-5.3,6.8-5.3,9.2s2.1,5.1,5.3,5.1s5.3-2.7,5.3-5.1S57.5,109.4,57.5,109.4z"/>
<path class="st0" d="M74.8,109.4c0,0-5.3,6.8-5.3,9.2s2.1,5.1,5.3,5.1s5.3-2.7,5.3-5.1S74.8,109.4,74.8,109.4z"/>
<path class="st0" d="M40.3,146.4c0,0-5.3,6.8-5.3,9.2s2.1,5.1,5.3,5.1s5.3-2.7,5.3-5.1S40.3,146.4,40.3,146.4z"/>
<path class="st0" d="M57.5,146.4c0,0-5.3,6.8-5.3,9.2s2.1,5.1,5.3,5.1s5.3-2.7,5.3-5.1S57.5,146.4,57.5,146.4z"/>
<path class="st0" d="M74.8,146.4c0,0-5.3,6.8-5.3,9.2s2.1,5.1,5.3,5.1s5.3-2.7,5.3-5.1S74.8,146.4,74.8,146.4z"/>
<path class="st0" d="M49,128.1c0,0-5.3,6.8-5.3,9.2s2.1,5.1,5.3,5.1s5.3-2.7,5.3-5.1S49,128.1,49,128.1z"/>
<path class="st0" d="M31.8,128.1c0,0-5.3,6.8-5.3,9.2s2.1,5.1,5.3,5.1s5.3-2.7,5.3-5.1S31.8,128.1,31.8,128.1z"/>
<path class="st0" d="M66.1,128.1c0,0-5.3,6.8-5.3,9.2s2.1,5.1,5.3,5.1s5.3-2.7,5.3-5.1S66.1,128.1,66.1,128.1z"/>
<path class="st0" d="M83.4,128.1c0,0-5.3,6.8-5.3,9.2s2.1,5.1,5.3,5.1s5.3-2.7,5.3-5.1S83.4,128.1,83.4,128.1z"/>
</svg>
