<?xml version="1.0" encoding="utf-8"?>
<!-- Generator: Adobe Illustrator 22.1.0, SVG Export Plug-In . SVG Version: 6.00 Build 0)  -->
<svg version="1.1" id="Camada_1" xmlns="http://www.w3.org/2000/svg" xmlns:xlink="http://www.w3.org/1999/xlink" x="0px" y="0px"
	 viewBox="0 0 45.3 61.9" style="enable-background:new 0 0 45.3 61.9;" xml:space="preserve">
<style type="text/css">
	.st0{fill:#C376FF;}
</style>
<g>
	<path class="st0" d="M13.1,61c-0.8,0-1.4-0.6-1.4-1.4V3.1c0-0.8,0.6-1.4,1.4-1.4s1.4,0.6,1.4,1.4v56.6C14.5,60.4,13.9,61,13.1,61z"
		/>
	<path class="st0" d="M22.3,61c-0.8,0-1.4-0.6-1.4-1.4V3.1c0-0.8,0.6-1.4,1.4-1.4s1.4,0.6,1.4,1.4v56.6C23.7,60.4,23.1,61,22.3,61z"
		/>
	<path class="st0" d="M31.8,61c-0.8,0-1.4-0.6-1.4-1.4V3.1c0-0.8,0.6-1.4,1.4-1.4s1.4,0.6,1.4,1.4v56.6C33.2,60.4,32.6,61,31.8,61z"
		/>
</g>
</svg>
