<?xml version="1.0" encoding="utf-8"?>
<!-- Generator: Adobe Illustrator 22.1.0, SVG Export Plug-In . SVG Version: 6.00 Build 0)  -->
<svg version="1.1" id="Camada_1" xmlns="http://www.w3.org/2000/svg" xmlns:xlink="http://www.w3.org/1999/xlink" x="0px" y="0px"
	 viewBox="0 0 45.3 61.9" style="enable-background:new 0 0 45.3 61.9;" xml:space="preserve">
<style type="text/css">
	.st0{fill:#C376FF;}
</style>
<g>
	<path class="st0" d="M7.5,59.1c-0.1,0-0.3,0-0.4,0c-0.8-0.1-1.4-0.7-1.3-1.5c0.1-0.8,0.7-1.4,1.5-1.3c2.3,0.2,3.7-2.9,4.3-5.6
		c0.5-2.3,0.4-4.9-0.2-7c-0.9,1.1-1.9,1.9-3.1,2.4c-1.8,0.8-3.6,0.3-4.8-1.3c-1.6-1.9-1.8-5-0.5-6.8c0.6-0.8,2.3-2.6,6-1.3
		c0.8,0.3,1.5,0.6,2.1,1.1c0.5-2.5,0.4-5.6-0.3-8.4c-1.2,1.1-2.5,1.8-4,1.9c-1.2,0-3.3-0.4-4.6-3.7c-1-2.5-0.2-4,0.4-4.7
		c1-1.2,2.8-1.6,4.6-1.1c1.2,0.3,2.6,1,3.8,2.2c0.1-0.3,0.2-0.6,0.3-0.9c0.9-2.6,0.5-5.9-0.4-8.4c-0.4,0.5-0.9,1-1.4,1.3
		c-0.9,0.6-1.9,0.7-3,0.4c-1.7-0.5-2.9-1.7-3.2-3.3C3,11.4,3.7,9.6,5,8.5C6.1,7.6,7.6,7.4,9.1,8c0.5,0.2,1.1,0.6,1.5,1
		c0.6-1.7,1-3.5,1.2-4.9c0.1-0.8,0.9-1.3,1.6-1.2c0.8,0.1,1.3,0.9,1.2,1.6c-0.2,0.9-0.8,4.2-2,7.1c1.9,3.4,2.7,8.5,1.4,12.3
		c-0.3,0.9-0.7,1.8-1.2,2.7c0.2,0.5,0.4,1,0.5,1.5c1.2,4.6,1,9-0.2,12.3c1.6,3,1.9,7.2,1.2,10.8C13.4,56.1,10.8,59.1,7.5,59.1z
		 M6.5,39c-0.5,0-1,0.1-1.2,0.5c-0.6,0.8-0.4,2.5,0.4,3.4c0.6,0.7,1.1,0.6,1.5,0.4c1.2-0.5,2.1-1.5,2.8-2.7c-0.5-0.6-1.2-1-2-1.3
		C7.6,39.1,7,39,6.5,39z M5.8,24.4c-0.5,0-0.9,0.1-1.1,0.3c-0.3,0.3-0.2,1,0.1,1.8c0.5,1.3,1.1,2,1.9,1.9c0.8,0,1.9-0.7,2.8-1.9
		c-0.9-1.2-2-1.8-2.9-2C6.3,24.4,6,24.4,5.8,24.4z M7.4,10.5c-0.2,0-0.4,0.1-0.6,0.2c-0.5,0.4-0.7,1.1-0.6,1.8
		c0.1,0.6,0.5,1,1.3,1.2c0.2,0.1,0.4,0.1,0.6-0.1c0.5-0.3,0.9-0.9,1.4-1.7c-0.5-0.6-1-1-1.5-1.2C7.7,10.5,7.6,10.5,7.4,10.5z"/>
	<path class="st0" d="M21.5,59.1c-0.1,0-0.3,0-0.4,0c-0.8-0.1-1.4-0.7-1.3-1.5s0.8-1.4,1.5-1.3c2.3,0.2,3.7-2.9,4.3-5.6
		c0.5-2.3,0.4-4.9-0.2-7c-0.9,1.1-1.9,1.9-3.1,2.4c-1.8,0.8-3.6,0.3-4.8-1.3c-1.6-1.9-1.8-5-0.5-6.8c0.6-0.8,2.3-2.6,6-1.3
		c0.8,0.3,1.5,0.6,2.1,1.1c0.5-2.5,0.4-5.6-0.3-8.4c-1.2,1.1-2.5,1.8-4,1.9c-1.2,0-3.3-0.4-4.6-3.7c-1-2.5-0.2-4,0.4-4.7
		c1-1.2,2.8-1.6,4.6-1.1c1.2,0.3,2.6,1,3.8,2.2c0.1-0.3,0.2-0.6,0.3-0.9c0.9-2.6,0.5-5.9-0.4-8.4c-0.4,0.5-0.9,1-1.4,1.3
		c-0.9,0.6-1.9,0.7-3,0.4c-1.7-0.5-2.9-1.7-3.2-3.3c-0.3-1.7,0.3-3.5,1.6-4.5c1.2-1,2.7-1.2,4.1-0.6c0.5,0.2,1.1,0.6,1.5,1
		c0.6-1.7,1-3.5,1.2-4.9c0.1-0.8,0.9-1.3,1.6-1.2c0.8,0.1,1.3,0.9,1.2,1.6c-0.2,0.9-0.8,4.2-2,7.1c1.9,3.4,2.7,8.5,1.4,12.3
		c-0.3,0.9-0.7,1.8-1.2,2.7c0.2,0.5,0.4,1,0.5,1.5c1.2,4.6,1,9-0.2,12.3c1.6,3,1.9,7.2,1.2,10.8C27.4,56.1,24.8,59.1,21.5,59.1z
		 M20.5,39c-0.5,0-1,0.1-1.2,0.5c-0.6,0.8-0.4,2.5,0.4,3.4c0.6,0.7,1.1,0.6,1.5,0.4c1.2-0.5,2.1-1.5,2.8-2.7
		c-0.5-0.7-1.2-1.1-1.9-1.4C21.5,39.1,21,39,20.5,39z M19.8,24.4c-0.5,0-0.9,0.1-1.1,0.3c-0.3,0.3-0.2,1,0.1,1.8
		c0.5,1.3,1.1,1.9,1.8,1.9l0,0c0.8,0,1.9-0.7,2.8-1.9c-0.9-1.2-2-1.8-2.9-2C20.3,24.4,20,24.4,19.8,24.4z M21.3,10.5
		c-0.2,0-0.4,0.1-0.6,0.2c-0.5,0.4-0.7,1.1-0.6,1.8c0.1,0.6,0.5,1,1.3,1.2c0.2,0.1,0.4,0.1,0.6-0.1c0.5-0.3,0.9-0.9,1.4-1.7
		c-0.5-0.6-1-1-1.5-1.2C21.7,10.5,21.5,10.5,21.3,10.5z"/>
	<path class="st0" d="M35.9,59.1c-0.1,0-0.3,0-0.4,0c-0.8-0.1-1.4-0.7-1.3-1.5c0.1-0.8,0.7-1.4,1.5-1.3c2.3,0.2,3.7-2.9,4.3-5.6
		c0.5-2.3,0.4-4.9-0.2-7c-0.9,1.1-1.9,1.9-3.1,2.4c-1.8,0.8-3.6,0.3-4.8-1.3c-1.6-1.9-1.8-5-0.5-6.8c0.6-0.8,2.3-2.6,6-1.3
		c0.8,0.3,1.5,0.6,2.1,1.1c0.5-2.5,0.4-5.6-0.3-8.4c-1.2,1.1-2.5,1.8-4,1.9c-1.2,0-3.3-0.4-4.6-3.7c-1-2.5-0.2-4,0.4-4.7
		c1-1.2,2.8-1.6,4.6-1.1c1.2,0.3,2.6,1,3.8,2.2c0.1-0.3,0.2-0.6,0.3-0.9c0.9-2.6,0.5-5.9-0.4-8.4c-0.4,0.5-0.9,1-1.4,1.3
		c-0.9,0.6-1.9,0.7-3,0.4c-1.7-0.5-2.9-1.7-3.2-3.3c-0.3-1.7,0.3-3.5,1.6-4.5c1.2-1,2.7-1.2,4.2-0.6c0.5,0.2,1,0.6,1.5,1
		c0.6-1.7,1-3.5,1.2-4.9c0.1-0.8,0.9-1.3,1.6-1.2C42.6,3,43.1,3.8,43,4.5c-0.2,0.9-0.8,4.2-2,7.1c1.9,3.4,2.7,8.5,1.4,12.3
		c-0.3,0.9-0.7,1.8-1.2,2.7c0.2,0.5,0.4,1,0.5,1.5c1.2,4.6,1,9-0.2,12.3c1.6,3,1.9,7.2,1.2,10.8C41.8,56.1,39.2,59.1,35.9,59.1z
		 M34.9,39c-0.5,0-1,0.1-1.2,0.5c-0.6,0.8-0.4,2.5,0.4,3.4c0.6,0.7,1.1,0.6,1.5,0.4c1.2-0.5,2.1-1.5,2.8-2.7
		c-0.5-0.7-1.2-1.1-1.9-1.4C36,39.1,35.4,39,34.9,39z M34.2,24.4c-0.5,0-0.9,0.1-1.1,0.3c-0.3,0.3-0.2,1,0.1,1.8
		c0.5,1.3,1.1,1.9,1.8,1.9l0,0c0.8,0,1.9-0.7,2.8-1.9c-0.9-1.2-2-1.8-2.9-2C34.7,24.4,34.5,24.4,34.2,24.4z M35.8,10.5
		c-0.2,0-0.4,0.1-0.6,0.2c-0.5,0.4-0.7,1.1-0.6,1.8c0.1,0.6,0.5,1,1.3,1.2c0.2,0.1,0.4,0.1,0.6-0.1c0.5-0.3,0.9-0.9,1.4-1.7
		c-0.5-0.6-1-1-1.5-1.2C36.1,10.5,36,10.5,35.8,10.5z"/>
</g>
</svg>
