<?xml version="1.0" encoding="utf-8"?>
<!-- Generator: Adobe Illustrator 22.1.0, SVG Export Plug-In . SVG Version: 6.00 Build 0)  -->
<svg version="1.1" id="Camada_1" xmlns="http://www.w3.org/2000/svg" xmlns:xlink="http://www.w3.org/1999/xlink" x="0px" y="0px"
	 viewBox="0 0 24 24" style="enable-background:new 0 0 24 24;" xml:space="preserve">
<style type="text/css">
	.st0{fill:#8826f4;}
</style>
<path class="st0" d="M20.8,15.5c1.3,1.8,0.9,3.1,2.2,4.9L18,24c-2.7-2-5.1-2.7-5.8-2.9c-0.7-0.2-1.2-0.7-1-1.3
	c0.2-0.6,0.8-0.8,1.3-0.7c0.8,0,1.4,0.3,1.4,0.3l-3.5-4.9c-0.3-0.4-0.2-1.1,0.2-1.4s1.1-0.2,1.4,0.2l2.4,3.3
	c0.1,0.2,0.3,0.2,0.5,0.1c0.2-0.1,0.2-0.3,0.1-0.5l-0.6-0.8l0.9-0.2c0.2-0.1,0.5,0,0.7,0.2l0.5,0.7c0.1,0.2,0.3,0.2,0.5,0.1
	c0.2-0.1,0.2-0.3,0.1-0.5l-0.6-0.8l0.9-0.2c0.2-0.1,0.5,0,0.6,0.2l0.4,0.6c0.1,0.2,0.3,0.2,0.5,0.1c0.2-0.1,0.2-0.3,0.1-0.5
	l-0.5-0.6l0.3,0C19.7,14.2,20.2,14.7,20.8,15.5z M9.9,12.2c0.6-0.4,1.4-0.4,2,0c-0.3-1.1-1.7-1.6-2.6-0.9c-1,0.7-1,2.1,0,2.8
	C9,13.4,9.3,12.7,9.9,12.2z M11.5,23c-0.7-0.2-1.2-0.6-1.6-1H3V8h3v1.5C6,9.8,6.2,10,6.5,10S7,9.8,7,9.5V8h6v1.5
	c0,0.3,0.2,0.5,0.5,0.5S14,9.8,14,9.5V8h3v4.6c0.5-0.1,1.5-0.3,2-0.3V6h-5V4c0-2.2-1.8-4-4-4S6,1.8,6,4v2H1v18h13.1
	C13.1,23.5,12.5,23.3,11.5,23z M7,4c0-1.7,1.3-3,3-3s3,1.3,3,3v2H7C7,6,7,4,7,4z"/>
</svg>
