<?xml version="1.0" encoding="utf-8"?>
<!-- Generator: Adobe Illustrator 22.1.0, SVG Export Plug-In . SVG Version: 6.00 Build 0)  -->
<svg version="1.1" id="Camada_1" xmlns="http://www.w3.org/2000/svg" xmlns:xlink="http://www.w3.org/1999/xlink" x="0px" y="0px"
	 viewBox="0 0 24 24" style="enable-background:new 0 0 24 24;" xml:space="preserve">
<style type="text/css">
	.st0{fill:#8826f4;}
</style>
<path class="st0" d="M2,0v24h14l6-6V0H2z M15,4h4v1h-4V4z M15,7h4v1h-4V7z M15,10h4v1h-4V10z M6.1,9c1.1-0.3,2.2-0.5,1.7-1.5
	C6.2,4.7,7.3,3,9,3c1.7,0,2.8,1.6,1.2,4.6c-0.5,1,0.5,1.2,1.7,1.5c1,0.2,1.1,0.7,1.1,1.6l0,0.3H5l0-0.3C5,9.8,5,9.3,6.1,9z M13,20H5
	v-1h8V20z M13,17H5v-1h8V17z M5,14v-1h14v1H5z M16,22.4V18h4.4L16,22.4z"/>
</svg>
