<?xml version="1.0" encoding="utf-8"?>
<!-- Generator: Adobe Illustrator 22.1.0, SVG Export Plug-In . SVG Version: 6.00 Build 0)  -->
<svg version="1.1" id="Camada_1" xmlns="http://www.w3.org/2000/svg" xmlns:xlink="http://www.w3.org/1999/xlink" x="0px" y="0px"
	 viewBox="0 0 356.6 348.3" style="enable-background:new 0 0 356.6 348.3;" xml:space="preserve">
<style type="text/css">
	.st0{fill:none;stroke:#FFFFFF;stroke-width:5.6693;stroke-linecap:round;stroke-miterlimit:10;}
	.st1{fill:none;stroke:#FFFFFF;stroke-width:6.5197;stroke-linecap:round;stroke-miterlimit:10;}
	.st2{fill:none;stroke:#8826F4;stroke-width:6.5197;stroke-linecap:round;stroke-miterlimit:10;}
</style>
<g>
	<path class="st0" d="M178.8,24.9c0,0,49.6,10.6,38.1,47.5c-0.6,1.9-1.3,3.8-2.2,5.6c-15.7,33.1-73.4,48.7-73.4,48.7
		s-29.4,10.8-23.2,54c3,19.4,10.3,47,36.5,71.8c1.8,1.7,14.6,14.8,22.7,14.2c8.2-0.7,12.1-2,20.9-10.5c8.8-8.5,41.2-37.9,41.9-87.7
		c0.7-21.9-6.9-35.7-11.1-40.2c-4.3-4.6-17.4-23.4-16.5-45.7"/>
	<path class="st0" d="M185.5,206.9h-11.8c0,0,21.6-83.7-49.4-64.4"/>
	<path class="st0" d="M189.4,145.7c0,0,13.4-10.1,32.4-5.2"/>
	<circle class="st1" cx="177.6" cy="174.7" r="150.3"/>
	<path class="st0" d="M179.4,110.9c0,0,53.2-64.3-30.3-83"/>
	<path class="st0" d="M161,119.6c0,0,50.2-72.4-42.1-83.2"/>
	<path class="st0" d="M147.6,124.8c0,0,41.7-72.2-54.1-74.2"/>
	<path class="st0" d="M141.3,126.8c0,0,6.8-100-86.7-37.8"/>
	<path class="st0" d="M128.3,136.3c0,0,0.9-89.9-89.3-18.6"/>
	<path class="st0" d="M117.8,159.5c0,0-4.9-98.1-87.3-9.2"/>
	<path class="st0" d="M69.4,119.8c0,0,0,32.2-40.5,59.3"/>
	<path class="st0" d="M91.6,113.7c0,0-8.8,66.1-60.8,85"/>
	<path class="st0" d="M107.3,124.8c0,0-8.5,22.6-10.8,31.4c-2.3,8.8-18.6,50-61.5,61.5"/>
	<path class="st0" d="M116.8,151.3c0,0-10.1,27.1-12.4,32.7c-2.3,5.6-20.3,41.5-63.1,49.7"/>
	<path class="st0" d="M121.1,195.5c0,0-20,44.2-73.3,55"/>
	<path class="st0" d="M130.9,221.6c0,0-30.1,39.6-70.7,43.8"/>
	<path class="st0" d="M143.6,241.3c0,0-33.4,37.6-66.4,43.2"/>
	<path class="st0" d="M147.2,245.2c0,0,0.7,59.5-12.8,71.6"/>
	<path class="st0" d="M145.9,270.7c0,0-28.5,25.2-46.4,30.7"/>
	<path class="st0" d="M142.3,296.2c0,0-8.5,8.8-23.9,15"/>
	<path class="st0" d="M208.9,245.6c0,0-8,33.6,10.9,71.2"/>
	<path class="st0" d="M231.6,36.2c0,0,2,14.4,10.5,18.3s22.9,9.5,29.4,33s15.4,58.9,54.3,74.3"/>
	<path class="st0" d="M278,63.2c0,0,11.5,14.8,15.4,35.7c3.9,20.9,19.6,38.6,29.1,43.2"/>
	<path class="st0" d="M217.2,53.2c0,0,7.5,12.1,18.6,18.3c11.1,6.2,16.7,14.4,25.2,38.9c8.5,24.5,9.8,51.7,64.4,72.6"/>
	<path class="st0" d="M214.7,78.1c0,0,5.8,10.7,16.6,16.6s16.7,30.1,19.3,38.6c2.6,8.5,14.7,54.6,72.9,68.7"/>
	<path class="st0" d="M240.1,163.4c0,0,25.8,45.8,79.8,54.3"/>
	<path class="st0" d="M237.2,194.9c0,0,23.5,33.6,76.2,39.1"/>
	<path class="st0" d="M228.1,219.1c0,0,18.9,24.1,77.1,31.7"/>
	<path class="st0" d="M218.8,234.3c0,0,25.9,27.6,75.3,31.8"/>
	<path class="st0" d="M207.7,254.3c0,0,29.1,22.6,72.9,26.8"/>
	<path class="st0" d="M209,280.2c0,0,33.5,17.4,58.3,15.5"/>
	<path class="st0" d="M214.8,302.3c0,0,17.6,6.4,28.4,6.8"/>
</g>
<circle class="st2" cx="177.6" cy="174.7" r="165.8"/>
</svg>
