<?xml version="1.0" encoding="utf-8"?>
<!-- Generator: Adobe Illustrator 22.1.0, SVG Export Plug-In . SVG Version: 6.00 Build 0)  -->
<svg version="1.1" id="Camada_1" xmlns="http://www.w3.org/2000/svg" xmlns:xlink="http://www.w3.org/1999/xlink" x="0px" y="0px"
	 viewBox="0 0 23.7 17" style="enable-background:new 0 0 23.7 17;" xml:space="preserve">
<style type="text/css">
	.st0{fill:#ff02fc;}
</style>
<path class="st0" d="M17.7,9.7H1.9c-0.8,0-1.4-0.6-1.4-1.4c0-0.8,0.6-1.4,1.4-1.4h15.8c0.8,0,1.4,0.6,1.4,1.4
	C19.1,9.1,18.5,9.7,17.7,9.7z"/>
<path class="st0" d="M21.7,3.4H1.9C1.1,3.4,0.5,2.8,0.5,2s0.6-1.4,1.4-1.4h19.8c0.8,0,1.4,0.6,1.4,1.4S22.5,3.4,21.7,3.4z"/>
<path class="st0" d="M13.7,16.1H1.9c-0.8,0-1.4-0.6-1.4-1.4s0.6-1.4,1.4-1.4h11.8c0.8,0,1.4,0.6,1.4,1.4S14.5,16.1,13.7,16.1z"/>
</svg>
