<?xml version="1.0" encoding="utf-8"?>
<!-- Generator: Adobe Illustrator 22.1.0, SVG Export Plug-In . SVG Version: 6.00 Build 0)  -->
<svg version="1.1" id="Camada_1" xmlns="http://www.w3.org/2000/svg" xmlns:xlink="http://www.w3.org/1999/xlink" x="0px" y="0px"
	 viewBox="0 0 45.3 61.9" style="enable-background:new 0 0 45.3 61.9;" xml:space="preserve">
<style type="text/css">
	.st0{fill:#C376FF;}
</style>
<g>
	<path class="st0" d="M6.8,59.6c-0.1,0-0.3,0-0.4-0.1c-0.7-0.2-1.2-1-0.9-1.8c0.1-0.4,1.2-3.8,3.9-5.3l0.2-0.1
		c1.4-0.5,2.3-1.1,2.6-1.8c0.1-0.3,0.1-0.6,0-0.8c-2.2-1.1-7.1-4-6.8-7.1c0.1-1.6,1.4-2.8,3.8-3.5c3.7-1.2,4-2,4-2.1
		c0,0-0.1-0.8-3.2-2.3c-1.7-0.8-3.9-2.2-3.9-4.4c0-2.5,2.8-4.2,4.9-5.3c1.4-0.8,1.9-1.2,2.1-1.4c-0.3-0.4-1.3-1.1-2-1.6
		s-1.5-1-2.3-1.7c-1.6-1.3-3.2-2.9-3-4.8c0.3-2,2.5-3.1,4.8-4.1c1.9-0.8,2.1-1.3,2.1-1.3c0-0.1-0.3-0.7-2.6-2.1
		C7.4,6.3,5.9,4.9,5.6,3.9c-0.2-0.8,0.3-1.5,1-1.7C7.4,2,8.1,2.4,8.3,3C8.4,3.2,9,4,11.5,5.6c2,1.3,4.1,2.8,3.9,4.8
		c-0.2,1.9-2.3,3-3.9,3.7c-3,1.3-3.1,1.9-3.1,1.9s-0.1,0.6,1.9,2.2c0.7,0.6,1.4,1.1,2.1,1.5c1.8,1.2,3.4,2.3,3.3,4.1
		c-0.1,1.7-1.9,2.9-3.6,3.8c-3.3,1.7-3.4,2.7-3.4,2.8c0,0.1,0.1,0.8,2.4,1.9c2.5,1.2,5,2.8,4.8,5.1c-0.2,1.9-2,3.3-6,4.5
		c-1.5,0.5-1.8,0.9-1.8,1c-0.1,0.9,2.7,3.1,5.7,4.6l0.4,0.2l0.2,0.3c0.1,0.2,1,1.7,0.3,3.6c-0.6,1.5-2,2.7-4.2,3.5
		C9.1,55.9,8.3,58,8,58.7C7.9,59.2,7.4,59.6,6.8,59.6z M13,23.7L13,23.7L13,23.7z M8.4,3.2L8.4,3.2L8.4,3.2z M8.4,3.2L8.4,3.2
		L8.4,3.2z M8.3,3L8.3,3L8.3,3z"/>
	<path class="st0" d="M18.2,59.6c-0.1,0-0.3,0-0.4-0.1c-0.7-0.2-1.2-1-0.9-1.8c0.1-0.4,1.2-3.8,3.9-5.3l0.2-0.1
		c1.4-0.5,2.3-1.1,2.6-1.8c0.1-0.3,0.1-0.6,0-0.8c-2.2-1.1-7.1-4-6.8-7.1c0.1-1.6,1.4-2.8,3.8-3.5c3.7-1.2,4-2,4-2.1
		c0,0-0.1-0.8-3.2-2.3c-1.7-0.8-3.9-2.2-3.9-4.4c0-2.5,2.8-4.2,4.9-5.3c1.4-0.8,1.9-1.2,2.1-1.4c-0.3-0.4-1.3-1.1-2-1.6
		s-1.5-1-2.3-1.7c-1.6-1.3-3.2-2.9-3-4.8c0.3-2,2.5-3.1,4.8-4.1c1.9-0.8,2.1-1.3,2.1-1.3c0-0.1-0.3-0.7-2.6-2.1
		c-2.6-1.7-4.1-3.1-4.3-4.1c-0.2-0.8,0.3-1.5,1-1.7C18.8,2,19.5,2.4,19.8,3c0.1,0.1,0.7,1,3.2,2.6c2,1.3,4.1,2.8,3.9,4.8
		c-0.2,1.9-2.3,3-3.8,3.7C20.1,15.4,20,16,20,16s-0.1,0.6,1.9,2.2c0.7,0.6,1.4,1.1,2.1,1.5c1.8,1.2,3.4,2.3,3.3,4.1
		c-0.1,1.7-1.9,2.9-3.6,3.8c-3.3,1.7-3.4,2.7-3.4,2.8c0,0.1,0.1,0.8,2.4,1.9c2.5,1.2,5,2.8,4.8,5.1c-0.2,1.9-2,3.3-6,4.5
		c-1.5,0.5-1.8,0.9-1.8,1c-0.1,0.9,2.7,3.1,5.7,4.6l0.4,0.2L26,48c0.1,0.2,1,1.7,0.3,3.6c-0.6,1.5-2,2.7-4.2,3.5
		c-1.4,0.8-2.2,2.9-2.5,3.6C19.4,59.2,18.8,59.6,18.2,59.6z M24.4,23.7L24.4,23.7L24.4,23.7z M19.8,3.2L19.8,3.2L19.8,3.2z
		 M19.8,3.2L19.8,3.2L19.8,3.2z M19.8,3L19.8,3L19.8,3z"/>
	<path class="st0" d="M30.4,59.6c-0.1,0-0.3,0-0.4-0.1c-0.7-0.2-1.2-1-0.9-1.8c0.1-0.4,1.2-3.8,3.9-5.3l0.2-0.1
		c1.4-0.5,2.3-1.1,2.6-1.8c0.1-0.3,0.1-0.6,0-0.8c-2.2-1.1-7.1-4-6.8-7.1c0.1-1.6,1.4-2.8,3.8-3.5c3.7-1.2,4-2,4-2.1
		c0,0-0.1-0.8-3.2-2.3c-1.7-0.8-3.9-2.2-3.9-4.4c0-2.5,2.8-4.2,4.9-5.3c1.4-0.8,1.9-1.2,2.1-1.4c-0.3-0.4-1.3-1.1-2-1.6
		s-1.5-1-2.3-1.7c-1.6-1.3-3.2-2.9-3-4.8c0.3-2,2.5-3.1,4.8-4.1c1.9-0.8,2.1-1.3,2.1-1.3c0-0.1-0.3-0.7-2.6-2.1
		c-2.6-1.7-4.1-3.1-4.3-4.1c-0.2-0.8,0.3-1.5,1-1.7C31,2,31.7,2.4,32,3c0.1,0.1,0.7,1,3.2,2.6c2,1.3,4.1,2.8,3.9,4.8
		c-0.2,1.9-2.3,3-3.9,3.7c-3,1.3-3.1,1.9-3.1,1.9S32,16.6,34,18.2c0.7,0.6,1.4,1.1,2.1,1.5c1.8,1.2,3.4,2.3,3.3,4.1
		c-0.1,1.7-1.9,2.9-3.6,3.8c-3.3,1.7-3.4,2.7-3.4,2.8c0,0.1,0.1,0.8,2.4,1.9c2.5,1.2,5,2.8,4.8,5.1c-0.2,1.9-2,3.3-6,4.5
		c-1.5,0.5-1.8,0.9-1.8,1c-0.1,0.9,2.7,3.1,5.7,4.6l0.4,0.2l0.2,0.3c0.1,0.2,1,1.7,0.3,3.6c-0.6,1.5-2,2.7-4.2,3.5
		c-1.4,0.8-2.2,2.9-2.5,3.6C31.6,59.2,31,59.6,30.4,59.6z M36.6,23.7L36.6,23.7L36.6,23.7z M32.1,3.2L32.1,3.2L32.1,3.2z M32.1,3.2
		L32.1,3.2L32.1,3.2z M32,3L32,3L32,3z"/>
</g>
</svg>
