<?xml version="1.0" encoding="utf-8"?>
<!-- Generator: Adobe Illustrator 22.1.0, SVG Export Plug-In . SVG Version: 6.00 Build 0)  -->
<svg version="1.1" id="Camada_1" xmlns="http://www.w3.org/2000/svg" xmlns:xlink="http://www.w3.org/1999/xlink" x="0px" y="0px"
	 viewBox="0 0 45.3 61.9" style="enable-background:new 0 0 45.3 61.9;" xml:space="preserve">
<style type="text/css">
	.st0{fill:#C376FF;}
</style>
<g>
	<path class="st0" d="M27.8,58.8c-0.7,0-1.4-0.6-1.4-1.3c-0.4-5,2.1-8,4.2-10.7c3.1-3.9,5.6-7,0.1-16.2c-6.8-8.6-3.8-13.4-0.8-18.1
		c1.7-2.7,3.5-5.6,3.8-9.5c0.1-0.8,0.8-1.4,1.5-1.3c0.8,0.1,1.4,0.8,1.3,1.5c-0.4,4.6-2.4,7.9-4.2,10.7c-2.9,4.6-4.9,7.9,0.7,14.9
		V29c6.6,11,3,15.5-0.2,19.5c-2,2.5-3.8,4.8-3.6,8.7c0.1,0.8-0.5,1.5-1.3,1.5C27.9,58.8,27.9,58.8,27.8,58.8z"/>
	<path class="st0" d="M18.6,58.8c-0.7,0-1.4-0.6-1.4-1.3c-0.4-5,2.1-8,4.2-10.7c3.1-3.9,5.6-7,0.1-16.2c-6.8-8.6-3.8-13.4-0.8-18.1
		c1.7-2.7,3.5-5.6,3.8-9.5c0.1-0.8,0.8-1.4,1.5-1.3c0.8,0.1,1.4,0.8,1.3,1.5c-0.4,4.6-2.4,7.9-4.2,10.7c-2.9,4.6-4.9,7.9,0.7,14.9
		l0.1,0.2c6.6,11,3,15.5-0.2,19.5c-2,2.5-3.8,4.8-3.6,8.7c0.1,0.8-0.5,1.5-1.3,1.5C18.7,58.8,18.6,58.8,18.6,58.8z"/>
	<path class="st0" d="M9.6,58.8c-0.7,0-1.4-0.6-1.4-1.3c-0.4-5,2.1-8,4.2-10.7c3.1-3.9,5.6-7,0.1-16.2C5.6,22,8.7,17.1,11.6,12.4
		c1.7-2.7,3.5-5.6,3.8-9.5c0.1-0.8,0.8-1.4,1.5-1.3c0.8,0.1,1.4,0.8,1.3,1.5C17.8,7.7,15.8,11,14,13.8c-2.9,4.6-4.9,7.9,0.7,14.9
		l0.1,0.2c6.6,11,3,15.5-0.2,19.5c-2,2.5-3.8,4.8-3.6,8.7c0.1,0.8-0.5,1.5-1.3,1.5C9.7,58.8,9.7,58.8,9.6,58.8z"/>
</g>
</svg>
